<?xml version="1.0" encoding="UTF-8" standalone="no"?>
<svg
   xmlns:dc="http://purl.org/dc/elements/1.1/"
   xmlns:cc="http://creativecommons.org/ns#"
   xmlns:rdf="http://www.w3.org/1999/02/22-rdf-syntax-ns#"
   xmlns:svg="http://www.w3.org/2000/svg"
   xmlns="http://www.w3.org/2000/svg"
   xmlns:sodipodi="http://sodipodi.sourceforge.net/DTD/sodipodi-0.dtd"
   xmlns:inkscape="http://www.inkscape.org/namespaces/inkscape"
   sodipodi:docname="solarLog.svg"
   inkscape:version="0.92.1 r15371"
   id="svg8"
   version="1.1"
   viewBox="0 0 71.437498 72.231252"
   height="273"
   width="270">
  <defs
     id="defs2" />
  <sodipodi:namedview
     inkscape:window-maximized="1"
     inkscape:window-y="0"
     inkscape:window-x="0"
     inkscape:window-height="1030"
     inkscape:window-width="1920"
     showgrid="false"
     inkscape:document-rotation="0"
     inkscape:current-layer="layer1"
     inkscape:document-units="px"
     inkscape:cy="98.20541"
     inkscape:cx="135.91252"
     inkscape:zoom="0.69999999"
     inkscape:pageshadow="2"
     inkscape:pageopacity="0.0"
     borderopacity="1.0"
     bordercolor="#666666"
     pagecolor="#ffffff"
     id="base"
     units="px" />
  <metadata
     id="metadata5">
    <rdf:RDF>
      <cc:Work
         rdf:about="">
        <dc:format>image/svg+xml</dc:format>
        <dc:type
           rdf:resource="http://purl.org/dc/dcmitype/StillImage" />
        <dc:title></dc:title>
      </cc:Work>
    </rdf:RDF>
  </metadata>
  <g
     id="layer1"
     inkscape:groupmode="layer"
     inkscape:label="Capa 1"
     transform="translate(0,-224.76873)">
    <path
       id="path54"
       d="m 34.171523,224.93664 c -2.65157,0.35196 -5.264451,0.47609 -7.871761,1.19715 -8.312863,2.29911 -15.811802,7.60289 -20.5351325,14.92981 -10.8477,16.82744 -5.95091905,39.92291 11.0347215,50.5546 3.381193,2.11628 7.11133,3.64028 10.99333,4.5055 4.007402,0.89334 8.148082,1.12939 12.214802,0.58897 17.43202,-2.31652 30.91744,-17.25374 31.3493,-35.07478 0.38802,-16.00707 -10.421,-30.63595 -25.51333,-35.21222 -3.5727,-1.0833 -7.93244,-1.98514 -11.67193,-1.48903 m -0.13572,4.23309 c 2.99303,-0.35689 6.32916,0.20575 9.22896,0.93833 14.13389,3.57005 24.52366,17.11905 23.88144,31.94132 -0.68973,15.91902 -12.80573,28.68618 -28.3602,30.54788 -3.10053,0.37117 -6.30583,0.16734 -9.364687,-0.45455 C 9.9946165,288.19245 -1.5140395,266.2678 6.7980015,247.9217 c 3.4453935,-7.60453 9.7882635,-13.83073 17.6016755,-16.7265 3.1635,-1.17246 6.318048,-1.62989 9.636126,-2.02547 m -27.5511835,26.02155 14.5220485,-0.005 10.993325,-0.81762 v -0.27432 l -6.514554,0.13716 v -0.13716 l 1.628637,-0.41149 v -0.13721 l -11.129049,-0.68581 v -0.13716 l 10.721892,-1.0973 v -0.13716 c -1.009077,-0.43892 -2.571082,-1.0294 -3.664445,-0.82297 l -1.900086,-0.68581 v -0.13716 l 5.971688,0.54864 c -1.14371,-1.4262 -4.061148,-2.22819 -5.70025,-3.03237 -0.679278,-0.33331 -1.401443,-0.88991 -2.171514,-0.80816 l -1.764366,-1.0973 v -0.13716 l 10.179016,3.01757 -3.93588,-3.29189 c 1.486677,0.55441 3.145582,2.2068 4.750194,2.19459 -1.628368,-2.85036 -4.507937,-5.33958 -6.650283,-7.81823 l 8.007492,6.44661 c -0.18133,-0.80061 -0.641828,-1.76829 -1.357209,-2.19459 l -1.085752,-2.46892 3.528709,3.9777 -1.628636,-5.7608 c -0.823679,-0.92585 -1.244417,-2.90139 -1.492916,-4.11487 l 3.506052,6.44662 1.51559,2.46892 -0.67861,-5.62365 h 0.13573 l 1.62864,5.62365 h 0.13572 l 0.81432,-11.38445 h 0.13572 l 0.95003,10.97296 c 0.74484,-0.57046 1.30876,-3.35786 1.08576,-4.25202 l 0.40717,-0.96014 h 0.13572 l -0.40717,5.62365 c 0.70901,-0.45963 1.3192,-1.76555 1.22148,-2.60608 0.88966,-0.51024 2.27481,-3.37351 2.17153,-4.38919 l 1.49292,-2.60608 h 0.13572 c -0.76546,3.3436 -2.8227,6.86387 -2.98584,10.28716 l 3.393,-4.25202 -2.44296,5.07499 2.04787,-1.64594 5.82389,-5.21217 c -1.2607,2.98904 -4.5378,5.18981 -6.24312,7.9554 1.60801,0.045 3.13011,-1.77816 4.61448,-2.33175 -1.20642,1.16355 -3.33355,2.17265 -4.0716,3.70337 l 10.31472,-3.42905 v 0.13717 l -3.66444,1.87788 -5.70024,3.05995 v 0.13716 l 4.88592,-0.41149 c -1.2246,0.5326 -3.98949,0.66071 -4.7502,1.78311 l 11.40049,0.68581 v 0.13716 c -3.53076,0.002 -7.83662,0.26294 -11.26477,1.0973 v 0.13716 l 2.17152,0.54865 v 0.13716 c -2.24142,0 -5.18179,-0.50421 -7.32889,0.13716 v 0.13716 c 8.75355,0.69829 17.39864,0.82297 26.19398,0.82297 -0.21973,-2.71827 -1.49075,-5.54847 -2.6817,-7.95539 -0.43416,-0.87729 -0.89846,-2.15948 -1.79706,-2.60608 0.0201,-0.8526 -0.86508,-1.82946 -1.39602,-2.46836 -1.44053,-1.73387 -3.0617,-3.41068 -4.84711,-4.7834 -0.62973,-0.48418 -1.36032,-1.2228 -2.17152,-1.25228 -0.57219,-1.05437 -2.23123,-1.57421 -3.25727,-2.09131 -3.37401,-1.70054 -7.23334,-2.68413 -10.99333,-2.85187 -11.348234,-0.50668 -21.9492,4.82878 -27.6665375,14.956 -1.505681,2.66726 -3.010141,5.95174 -3.277646,9.05269 m 10.4504505,-17.41957 -0.135719,0.13716 0.135719,-0.13716 m 20.765173,0.54865 -0.13572,0.13716 0.13572,-0.13716 m 10.99332,0 -0.6786,0.54864 v -0.13746 l 0.6786,-0.41148 m -33.387131,0.96013 -0.135729,0.13717 0.135729,-0.13717 m 27.551171,0.96014 -0.13572,0.41149 h -0.13572 l 0.27144,-0.41149 m -0.54288,0.41149 -0.13572,0.13716 0.13572,-0.13716 m -14.974394,0.36581 -0.0453,0.0914 0.0453,-0.0914 m -2.126328,0.73148 -0.135719,0.13716 0.135719,-0.13716 m 21.443762,2.46892 -0.27144,0.27432 0.27144,-0.27432 m -35.558658,0.13716 -0.135719,0.13716 0.135719,-0.13716 m 35.422938,0.27432 -0.13572,0.13716 0.13572,-0.13716 m 6.24312,0 -0.13572,0.13716 0.13572,-0.13716 m -29.044081,0.41149 -0.40717,-0.27433 0.40717,0.27433 m -4.885937,1.09729 -0.135719,0.13717 0.135719,-0.13717 m 30.808468,2.88041 v 0.13716 l -0.54289,0.13716 0.54289,-0.27432 m 0.67859,0 -0.13572,0.13716 0.13572,-0.13716 m -0.40716,0.13716 -0.13571,0.13716 0.13571,-0.13716 m -1.76436,0.13716 h 0.81432 v 0.13716 h -0.95004 l 0.13572,-0.13716 m 15.20065,1.50878 -0.13572,0.13716 0.13572,-0.13716 m -33.658579,13.7162 c 0,3.07983 -0.329252,8.57522 2.985849,10.16095 0.82707,0.39571 1.82516,0.26335 2.7144,0.26335 h 5.29308 l -0.13572,-2.19459 h -5.15736 c -0.78121,0 -1.74428,0.15472 -2.44093,-0.27556 -2.07394,-1.28095 -1.74889,-5.80853 -1.76639,-7.95415 h -1.492929 m 11.536209,10.4243 h 1.49292 l -0.13572,-2.19459 h 7.32888 c 0,1.58162 -0.0866,2.19459 1.62864,2.19459 -0.008,-2.91469 0.1478,-7.04162 -1.94093,-9.31425 -1.77752,-1.93399 -6.78641,-1.72001 -8.05838,0.67305 -1.24116,2.33505 -0.77862,6.11989 -0.31541,8.6412 m 10.179,-10.4243 0.67861,10.4243 h 1.49292 l -0.13572,-4.11486 h 5.02164 c 0.66869,0 1.49007,-0.14018 1.97689,0.43179 0.64142,0.75357 0.46594,2.72212 0.46607,3.68307 h 1.62864 c -0.22407,-1.2195 -0.1307,-2.47454 -0.31229,-3.70337 -0.0821,-0.55564 -0.43512,-1.08509 -0.42902,-1.64594 0.0174,-1.62181 0.58007,-3.1646 -0.79246,-4.47971 -0.79885,-0.7655 -1.93279,-0.59528 -2.94499,-0.59528 h -6.65029 m -42.7518205,8.22971 0.135719,2.33175 c 1.8584215,0 3.7153405,-0.13414 5.5645275,-0.13716 0.939858,-0.002 2.238426,0.23181 3.119527,-0.13839 2.037286,-0.85603 1.487764,-4.58217 -0.0038,-5.67 -1.202216,-0.87702 -3.858253,-0.36389 -5.287655,-0.36389 -0.581838,0 -1.383399,0.14072 -1.885293,-0.21988 -0.7736015,-0.55591 -0.5664885,-1.60671 0.392913,-1.6923 2.536063,-0.22632 5.188581,-0.008 7.735502,-0.008 l -0.135719,-2.19459 h -6.107403 c -0.820027,0 -1.958447,-0.20026 -2.7123705,0.18078 -1.978664,0.99977 -1.442155,4.64951 0.135719,5.73721 1.2765825,0.87989 3.8027485,0.39146 5.2910505,0.39146 0.699091,0 1.772369,-0.19971 2.167176,0.55674 0.523612,1.00348 -0.672766,1.22499 -1.352852,1.22636 -2.194731,0.005 -4.943467,0.5086 -7.0574465,0 m 13.0291315,-8.01944 c -3.135138,0.76536 -2.949742,5.83665 -1.71849,8.01944 1.347295,2.38855 4.516637,2.73433 7.011573,2.12149 3.184003,-0.7821 2.798543,-6.00152 1.58277,-8.15661 -1.297482,-2.29993 -4.492471,-2.56603 -6.875853,-1.98432 m 28.094054,5.68769 c -2.14709,0.64137 -5.08746,0.13716 -7.32888,0.13716 0,-1.02542 -0.15662,-2.14041 0.49375,-3.01166 0.90702,-1.21485 4.47224,-1.28494 5.60102,-0.34428 1.04967,0.87482 0.95168,2.01957 1.23411,3.21878 m 3.39301,-3.70337 h 2.98583 1.90009 c 0.57328,0 1.49631,-0.17324 2.00485,0.141 0.49077,0.30327 0.61305,1.28672 0.10776,1.63826 -0.39331,0.27364 -1.11752,0.14101 -1.56973,0.14101 h -3.66445 c -0.42358,0 -1.19148,0.14347 -1.54679,-0.14101 -0.40147,-0.32123 -0.21756,-1.31977 -0.21756,-1.77926 m -31.079772,0.19669 c 1.156203,-0.32137 3.994659,-0.3857 4.860688,0.50407 1.155656,1.18714 1.62633,4.57641 -0.387344,5.2448 -1.12254,0.37267 -4.107718,0.41903 -4.946057,-0.48844 -1.092957,-1.18315 -1.575577,-4.69135 0.472713,-5.26043 z"
       style="fill:#ffcc00;stroke:none;stroke-width:0.136439"
       inkscape:connector-curvature="0" />
  </g>
</svg>
